<svg width="51" height="58" viewBox="0 0 51 58" fill="none" xmlns="http://www.w3.org/2000/svg">
<path d="M22.6622 0C23.0223 1.58081 23.1959 3.59008 23.0109 5.82819C25.3045 24.0605 38.4083 29.0366 47.3002 29.303C48.3264 29.228 49.3925 29.1892 50.5 29.1892C49.5251 29.2933 48.4477 29.3374 47.3002 29.303C29.5698 30.5984 23.7784 42.6879 22.7506 51.8344C22.8276 53.4549 22.8026 55.1836 22.6622 57.027C22.5292 55.5049 22.5372 53.733 22.7506 51.8344C21.8793 33.4974 7.94975 29.0236 0.5 29.1892C17.3192 24.3116 22.3633 13.6665 23.0109 5.82819C22.7833 4.0188 22.6622 2.07886 22.6622 0Z" fill="#38EA49"/>
</svg>
