<svg width="355" height="355" viewBox="0 0 355 355" fill="none" xmlns="http://www.w3.org/2000/svg">
<path d="M0 309.226C0 334.508 20.4943 355 45.7742 355H309.224C334.508 355 355 334.506 355 309.226V45.7756C355 20.4915 334.506 0 309.226 0H45.7756C20.4915 0 0 20.4943 0 45.7742V309.224V309.226Z" fill="#563D7C"/>
<path d="M147.211 157.029V106.757H191.463C195.679 106.757 199.742 107.107 203.655 107.81C207.568 108.512 211.031 109.766 214.041 111.573C217.051 113.38 219.459 115.888 221.266 119.098C223.072 122.31 223.976 126.424 223.976 131.44C223.976 140.472 221.266 146.995 215.847 151.008C210.429 155.023 203.505 157.029 195.075 157.029H147.211V157.029ZM99.9478 70.0293V284.971H204.107C213.741 284.971 223.123 283.767 232.255 281.358C241.386 278.95 249.514 275.237 256.639 270.22C263.762 265.203 269.433 258.73 273.647 250.803C277.862 242.875 279.969 233.493 279.969 222.656C279.969 209.209 276.707 197.72 270.186 188.187C263.662 178.654 253.778 171.981 240.532 168.167C250.165 163.552 257.442 157.631 262.359 150.406C267.275 143.181 269.733 134.151 269.733 123.313C269.733 113.278 268.078 104.85 264.766 98.0258C261.455 91.2031 256.788 85.7339 250.767 81.6195C244.748 77.5051 237.523 74.5445 229.093 72.7389C220.664 70.932 211.332 70.0293 201.096 70.0293H99.9478V70.0293ZM147.211 248.243V189.24H198.688C208.923 189.24 217.152 191.597 223.374 196.315C229.595 201.031 232.707 208.908 232.707 219.946C232.707 225.566 231.753 230.181 229.846 233.794C227.939 237.406 225.381 240.267 222.169 242.373C218.959 244.481 215.245 245.986 211.031 246.89C206.815 247.791 202.401 248.243 197.785 248.243H147.211V248.243Z" fill="white"/>
</svg>
