<svg width="227" height="340" viewBox="0 0 227 340" fill="none" xmlns="http://www.w3.org/2000/svg">
<path d="M56.7613 340C88.081 340 113.5 314.613 113.5 283.333V226.667H56.7613C25.4416 226.667 0.0226746 252.053 0.0226746 283.333C0.0226746 314.613 25.4416 340 56.7613 340Z" fill="#0ACF83"/>
<path d="M0.0226746 170C0.0226746 138.72 25.4416 113.333 56.7613 113.333H113.5V226.667H56.7613C25.4416 226.667 0.0226746 201.28 0.0226746 170Z" fill="#A259FF"/>
<path d="M0.0228271 56.6667C0.0228271 25.3867 25.4417 0 56.7615 0H113.5V113.333H56.7615C25.4417 113.333 0.0228271 87.9467 0.0228271 56.6667Z" fill="#F24E1E"/>
<path d="M113.5 0H170.239C201.558 0 226.977 25.3867 226.977 56.6667C226.977 87.9467 201.558 113.333 170.239 113.333H113.5V0Z" fill="#FF7262"/>
<path d="M226.977 170C226.977 201.28 201.558 226.667 170.239 226.667C138.919 226.667 113.5 201.28 113.5 170C113.5 138.72 138.919 113.333 170.239 113.333C201.558 113.333 226.977 138.72 226.977 170Z" fill="#1ABCFE"/>
</svg>
