<svg width="107" height="107" viewBox="0 0 107 107" fill="none" xmlns="http://www.w3.org/2000/svg">
<circle cx="53.5" cy="53.5" r="53.5" fill="white"/>
<path d="M53.5 4C26.1678 4 4 26.0353 4 53.2135C4 74.9576 18.1817 93.4044 37.8539 99.9129C40.3247 100.368 41.125 98.8425 41.125 97.5466V88.3847C27.3558 91.3621 24.4889 82.5775 24.4889 82.5775C22.2366 76.8892 18.9902 75.3759 18.9902 75.3759C14.4981 72.3206 19.3326 72.3862 19.3326 72.3862C24.3032 72.7307 26.9185 77.4593 26.9185 77.4593C31.3322 84.9807 38.4974 82.8071 41.323 81.5481C41.7644 78.3697 43.0473 76.1961 44.4663 74.9699C33.4731 73.7191 21.9149 69.499 21.9149 50.6461C21.9149 45.2696 23.8495 40.8814 27.0134 37.4364C26.5019 36.1938 24.8065 31.1863 27.496 24.4113C27.496 24.4113 31.654 23.0907 41.1126 29.4557C45.0602 28.3648 49.2925 27.8193 53.5 27.7988C57.7075 27.8193 61.9439 28.3648 65.8997 29.4557C75.3501 23.0907 79.4999 24.4113 79.4999 24.4113C82.1935 31.1904 80.4981 36.1979 79.9866 37.4364C83.1629 40.8814 85.081 45.2737 85.081 50.6461C85.081 69.5482 73.5021 73.7109 62.4801 74.9289C64.2539 76.4545 65.875 79.4483 65.875 84.0416V97.5466C65.875 98.8548 66.667 100.393 69.1791 99.9088C88.8347 93.3921 103 74.9494 103 53.2135C103 26.0353 80.8364 4 53.5 4Z" fill="black"/>
</svg>
