<svg width="357" height="405" viewBox="0 0 357 405" fill="none" xmlns="http://www.w3.org/2000/svg">
<path d="M33.1883 363.781L0.836761 0.895508H356.163L323.772 363.81L178.414 404.105L33.1883 363.781Z" fill="#E34E26"/>
<path d="M178.5 30.5574V373.281L296.04 340.699L323.733 30.5574H178.5Z" fill="#EF662A"/>
<path d="M67.0286 75.0691L79.0254 209.661H233.289L228.112 267.39L178.443 280.819L128.867 267.41L125.553 230.342H80.8773L87.2657 301.797L178.432 327.117L269.713 301.797L281.951 165.159H119.732L115.659 119.581H285.849H285.985L289.971 75.0691H67.0286Z" fill="white"/>
<path d="M178.5 75.0691H67.0286L79.0254 209.661H178.5V165.159H119.732L115.659 119.581H178.5V75.0691Z" fill="#EBEBEB"/>
<path d="M178.5 280.799L178.443 280.819L128.867 267.409L125.553 230.342H80.8773L87.2657 301.797L178.432 327.117L178.5 327.098V280.799Z" fill="#EBEBEB"/>
</svg>
