<svg width="107" height="107" viewBox="0 0 107 107" fill="none" xmlns="http://www.w3.org/2000/svg">
<path d="M53.5259 0.810547C31.5251 0.810547 25.0907 0.833244 23.84 0.937001C19.3251 1.31231 16.5156 2.02321 13.4548 3.54715C11.0961 4.71848 9.23577 6.07624 7.3998 7.97955C4.05615 11.4506 2.0297 15.7208 1.29612 20.7969C0.939467 23.2611 0.835713 23.7637 0.814638 36.3508C0.806532 40.5465 0.814638 46.0683 0.814638 53.4748C0.814638 75.4585 0.838955 81.8866 0.944331 83.1349C1.30909 87.5284 1.99809 90.2925 3.45713 93.3161C6.24553 99.1038 11.5711 103.449 17.845 105.07C20.0173 105.629 22.4166 105.937 25.4968 106.083C26.8019 106.14 40.1035 106.18 53.4133 106.18C66.723 106.18 80.0328 106.164 81.3054 106.099C84.8719 105.932 86.943 105.654 89.2329 105.062C95.5473 103.432 100.776 99.1525 103.621 93.2837C105.051 90.3331 105.777 87.4635 106.105 83.2994C106.176 82.3916 106.206 67.9166 106.206 53.461C106.206 39.0031 106.174 24.5548 106.103 23.6469C105.77 19.4156 105.045 16.5704 103.568 13.563C102.356 11.1012 101.011 9.26274 99.0571 7.38294C95.5708 4.05297 91.3071 2.02646 86.2264 1.29367C83.7647 0.937812 83.2743 0.832433 70.6778 0.810547H53.5259Z" fill="url(#paint0_radial)"/>
<path d="M53.5259 0.810547C31.5251 0.810547 25.0907 0.833244 23.84 0.937001C19.3251 1.31231 16.5156 2.02321 13.4548 3.54715C11.0961 4.71848 9.23577 6.07624 7.3998 7.97955C4.05615 11.4506 2.0297 15.7208 1.29612 20.7969C0.939467 23.2611 0.835713 23.7637 0.814638 36.3508C0.806532 40.5465 0.814638 46.0683 0.814638 53.4748C0.814638 75.4585 0.838955 81.8866 0.944331 83.1349C1.30909 87.5284 1.99809 90.2925 3.45713 93.3161C6.24553 99.1038 11.5711 103.449 17.845 105.07C20.0173 105.629 22.4166 105.937 25.4968 106.083C26.8019 106.14 40.1035 106.18 53.4133 106.18C66.723 106.18 80.0328 106.164 81.3054 106.099C84.8719 105.932 86.943 105.654 89.2329 105.062C95.5473 103.432 100.776 99.1525 103.621 93.2837C105.051 90.3331 105.777 87.4635 106.105 83.2994C106.176 82.3916 106.206 67.9166 106.206 53.461C106.206 39.0031 106.174 24.5548 106.103 23.6469C105.77 19.4156 105.045 16.5704 103.568 13.563C102.356 11.1012 101.011 9.26274 99.0571 7.38294C95.5708 4.05297 91.3071 2.02646 86.2264 1.29367C83.7647 0.937812 83.2743 0.832433 70.6778 0.810547H53.5259Z" fill="url(#paint1_radial)"/>
<path d="M53.5016 14.5908C42.9349 14.5908 41.6088 14.637 37.4586 14.8259C33.3165 15.0156 30.4892 15.6714 28.0153 16.6335C25.4563 17.6274 23.2856 18.9567 21.1229 21.1203C18.9587 23.2829 17.6293 25.4538 16.6323 28.012C15.6677 30.4868 15.0111 33.315 14.8247 37.4556C14.6391 41.6059 14.5905 42.9328 14.5905 53.4999C14.5905 64.067 14.6375 65.3891 14.8255 69.5394C15.016 73.6816 15.6718 76.509 16.6331 78.9829C17.6277 81.542 18.9571 83.7128 21.1205 85.8755C23.2823 88.0398 25.4531 89.3725 28.0104 90.3663C30.486 91.3285 33.3141 91.9842 37.4553 92.1739C41.6055 92.3628 42.9308 92.409 53.4967 92.409C64.0643 92.409 65.3864 92.3628 69.5365 92.1739C73.6786 91.9842 76.5092 91.3285 78.9847 90.3663C81.5429 89.3725 83.7104 88.0398 85.8722 85.8755C88.0364 83.7128 89.3658 81.542 90.3628 78.9837C91.3193 76.509 91.9759 73.6808 92.1704 69.5402C92.3568 65.3899 92.4055 64.067 92.4055 53.4999C92.4055 42.9328 92.3568 41.6067 92.1704 37.4564C91.9759 33.3142 91.3193 30.4868 90.3628 28.0128C89.3658 25.4538 88.0364 23.2829 85.8722 21.1203C83.7079 18.9559 81.5437 17.6265 78.9822 16.6335C76.5019 15.6714 73.6729 15.0156 69.5309 14.8259C65.3807 14.637 64.0594 14.5908 53.4894 14.5908H53.5016ZM50.0112 21.6026C51.0472 21.6009 52.2031 21.6026 53.5016 21.6026C63.89 21.6026 65.1213 21.6399 69.2236 21.8263C73.0172 21.9998 75.076 22.6337 76.4475 23.1662C78.2632 23.8714 79.5577 24.7145 80.9187 26.0763C82.2805 27.4381 83.1235 28.7351 83.8303 30.5508C84.3629 31.9208 84.9976 33.9797 85.1702 37.7733C85.3566 41.875 85.3972 43.1071 85.3972 53.491C85.3972 63.8749 85.3566 65.107 85.1702 69.2086C84.9967 73.0023 84.3629 75.0612 83.8303 76.4311C83.1251 78.2469 82.2805 79.5398 80.9187 80.9008C79.5569 82.2626 78.2641 83.1057 76.4475 83.8109C75.0777 84.3459 73.0172 84.9782 69.2236 85.1516C65.1221 85.3381 63.89 85.3786 53.5016 85.3786C43.1124 85.3786 41.8811 85.3381 37.7796 85.1516C33.986 84.9766 31.9272 84.3427 30.5549 83.8101C28.7392 83.1049 27.4422 82.2618 26.0804 80.9C24.7187 79.5382 23.8757 78.2445 23.1688 76.4279C22.6363 75.058 22.0016 72.999 21.8289 69.2054C21.6425 65.1037 21.6052 63.8716 21.6052 53.4813C21.6052 43.0909 21.6425 41.8653 21.8289 37.7636C22.0024 33.97 22.6363 31.911 23.1688 30.5395C23.874 28.7237 24.7187 27.4268 26.0804 26.0649C27.4422 24.7031 28.7392 23.8601 30.5549 23.1533C31.9264 22.6183 33.986 21.986 37.7796 21.8117C41.3688 21.6496 42.7598 21.6009 50.0112 21.5928V21.6026ZM74.2703 28.0631C71.6927 28.0631 69.6014 30.152 69.6014 32.7306C69.6014 35.3083 71.6927 37.3997 74.2703 37.3997C76.848 37.3997 78.9393 35.3083 78.9393 32.7306C78.9393 30.1528 76.848 28.0615 74.2703 28.0615V28.0631ZM53.5016 33.5185C42.4672 33.5185 33.5208 42.4651 33.5208 53.4999C33.5208 64.5347 42.4672 73.4773 53.5016 73.4773C64.536 73.4773 73.4792 64.5347 73.4792 53.4999C73.4792 42.4651 64.5352 33.5185 53.5008 33.5185H53.5016ZM53.5016 40.5302C60.6639 40.5302 66.4709 46.3366 66.4709 53.4999C66.4709 60.6624 60.6639 66.4696 53.5016 66.4696C46.3385 66.4696 40.5323 60.6624 40.5323 53.4999C40.5323 46.3366 46.3385 40.5302 53.5016 40.5302Z" fill="white"/>
<defs>
<radialGradient id="paint0_radial" cx="0" cy="0" r="1" gradientUnits="userSpaceOnUse" gradientTransform="translate(28.8068 114.296) rotate(-90) scale(104.429 97.151)">
<stop stop-color="#FFDD55"/>
<stop offset="0.1" stop-color="#FFDD55"/>
<stop offset="0.5" stop-color="#FF543E"/>
<stop offset="1" stop-color="#C837AB"/>
</radialGradient>
<radialGradient id="paint1_radial" cx="0" cy="0" r="1" gradientUnits="userSpaceOnUse" gradientTransform="translate(-16.8433 8.40122) rotate(78.678) scale(46.6808 192.463)">
<stop stop-color="#3771C8"/>
<stop offset="0.128" stop-color="#3771C8"/>
<stop offset="1" stop-color="#6600FF" stop-opacity="0"/>
</radialGradient>
</defs>
</svg>
