<svg width="391" height="391" viewBox="0 0 391 391" fill="none" xmlns="http://www.w3.org/2000/svg">
<path d="M0 195.5V0H195.5H391V195.5V391H195.5H0V195.5ZM171.167 358.772C194.681 354.708 208.842 339.673 211.989 315.431C212.305 312.992 212.533 284.095 212.544 245.144L212.561 178.999H194.381H176.202L176.192 241.508C176.186 278.922 175.959 306.136 175.627 309.295C174.525 319.756 170.613 324.848 162.33 326.603C150.597 329.09 141.859 324.383 134.686 311.709C133.771 310.094 132.759 308.773 132.436 308.773C131.907 308.773 104.413 325.151 103.298 326.131C102.136 327.152 109.099 337.804 114.527 343.306C127.857 356.82 149.022 362.599 171.167 358.772H171.167ZM311.849 359.06C326.801 357.176 338.987 351.4 347.92 341.962C351.58 338.095 352.955 336.113 355.168 331.512C358.802 323.956 359.702 320.134 360.062 310.73C360.713 293.71 356.215 281.672 345.316 271.26C337.503 263.797 327.653 258.031 309.052 250.037C289.976 241.837 284.108 238.088 281.312 232.312C279.37 228.301 279.471 222.238 281.549 218.005C284.627 211.736 290.569 208.841 299.33 209.34C307.678 209.816 313.499 213.336 318.581 220.981L321.117 224.795L333.926 216.58C340.971 212.062 347.38 207.862 348.169 207.247L349.602 206.128L346.444 201.447C338.527 189.71 328.048 182.26 314.81 178.953C308.124 177.283 293.121 176.851 285.838 178.119C273.841 180.207 265.349 184.415 257.534 192.144C250.46 199.14 246.635 206.142 244.653 215.725C243.257 222.475 243.819 235.289 245.801 241.9C250.868 258.804 262.253 269.696 285.65 280.025C290.214 282.04 297.343 285.19 301.491 287.024C318.204 294.416 323.498 299.715 323.498 309.052C323.498 317.691 317.996 323.703 307.614 326.408C302.053 327.857 291.448 327.345 285.624 325.347C277.688 322.623 270.086 316.495 264.861 308.609C263.355 306.336 262.458 305.468 261.855 305.699C260.121 306.365 232.698 322.431 232.698 322.781C232.698 324.064 241.142 335.536 244.772 339.185C260.869 355.366 284.83 362.466 311.849 359.06V359.06Z" fill="#EED94D"/>
<path d="M151.31 359.593C136.953 358.538 123.811 352.719 114.527 343.306C109.099 337.804 102.136 327.152 103.298 326.131C104.413 325.151 131.907 308.773 132.436 308.773C132.759 308.773 133.771 310.094 134.686 311.709C141.859 324.383 150.597 329.09 162.33 326.603C170.613 324.848 174.525 319.756 175.627 309.295C175.959 306.136 176.186 278.922 176.192 241.508L176.202 178.999H194.381H212.561L212.544 245.144C212.533 284.095 212.305 312.992 211.989 315.431C208.009 346.09 185.956 362.14 151.31 359.593H151.31ZM292.513 359.633C267.921 357.923 248.744 347.414 236.546 328.963C234.43 325.763 232.698 322.981 232.698 322.781C232.698 322.431 260.121 306.365 261.855 305.699C262.458 305.468 263.355 306.336 264.861 308.609C270.086 316.495 277.688 322.623 285.624 325.347C291.448 327.345 302.053 327.857 307.614 326.408C317.996 323.703 323.498 317.691 323.498 309.052C323.498 299.715 318.205 294.416 301.491 287.024C297.343 285.19 290.215 282.04 285.65 280.025C262.253 269.696 250.868 258.804 245.801 241.9C243.819 235.289 243.257 222.475 244.653 215.725C246.635 206.142 250.46 199.14 257.534 192.144C265.349 184.415 273.841 180.207 285.838 178.119C293.121 176.851 308.124 177.283 314.81 178.953C328.048 182.26 338.527 189.71 346.444 201.447L349.602 206.128L348.169 207.247C347.38 207.862 340.971 212.062 333.926 216.58L321.117 224.795L318.581 220.981C313.499 213.336 307.678 209.816 299.33 209.34C290.569 208.841 284.627 211.736 281.549 218.005C280.21 220.731 279.972 221.889 280.012 225.478C280.126 235.621 284.892 239.652 309.052 250.037C327.653 258.031 337.503 263.797 345.316 271.26C356.215 281.672 360.713 293.71 360.062 310.73C359.702 320.134 358.802 323.956 355.168 331.512C345.793 351.007 322.004 361.684 292.513 359.633V359.633Z" fill="#31322F"/>
</svg>
