<svg width="570" height="348" viewBox="0 0 570 348" fill="none" xmlns="http://www.w3.org/2000/svg">
<path d="M281.333 348.907C279.454 348.907 277.582 348.418 275.942 347.465L258.777 337.297C256.217 335.861 257.465 335.353 258.314 335.063C261.73 333.872 262.425 333.601 266.073 331.528C266.453 331.315 266.954 331.393 267.347 331.624L280.535 339.461C281.011 339.725 281.687 339.725 282.124 339.461L333.527 309.764C334.003 309.493 334.312 308.939 334.312 308.373V248.998C334.312 248.418 334.003 247.877 333.514 247.581L282.131 217.91C281.661 217.633 281.031 217.633 280.548 217.91L229.184 247.587C228.682 247.877 228.367 248.437 228.367 248.998V308.373C228.367 308.939 228.682 309.48 229.177 309.751L243.26 317.89C250.897 321.715 255.574 317.214 255.574 312.687V254.065C255.574 253.241 256.243 252.584 257.073 252.584H263.59C264.4 252.584 265.076 253.241 265.076 254.065V312.687C265.076 322.893 259.524 328.746 249.854 328.746C246.889 328.746 244.547 328.746 238.017 325.526L224.539 317.761C221.206 315.829 219.148 312.23 219.148 308.373V248.998C219.148 245.141 221.206 241.541 224.539 239.622L275.942 209.893C279.191 208.051 283.514 208.051 286.743 209.893L338.14 239.622C341.473 241.548 343.538 245.141 343.538 248.998V308.373C343.538 312.23 341.473 315.816 338.14 317.761L286.743 347.465C285.097 348.418 283.237 348.907 281.333 348.907Z" fill="black"/>
<path d="M297.211 307.999C274.713 307.999 270.004 297.664 270.004 288.997C270.004 288.173 270.666 287.516 271.49 287.516H278.136C278.875 287.516 279.493 288.051 279.609 288.778C280.612 295.546 283.604 298.965 297.211 298.965C308.038 298.965 312.644 296.512 312.644 290.762C312.644 287.446 311.338 284.986 294.509 283.337C280.445 281.947 271.747 278.836 271.747 267.574C271.747 257.195 280.49 251.007 295.145 251.007C311.615 251.007 319.76 256.725 320.795 268.997C320.834 269.422 320.686 269.828 320.403 270.144C320.12 270.44 319.728 270.614 319.316 270.614H312.644C311.95 270.614 311.338 270.124 311.197 269.455C309.601 262.327 305.709 260.054 295.145 260.054C283.321 260.054 281.951 264.175 281.951 267.265C281.951 271.006 283.572 272.095 299.533 274.207C315.334 276.299 322.835 279.261 322.835 290.369C322.835 301.579 313.494 307.999 297.211 307.999Z" fill="black"/>
<path fill-rule="evenodd" clip-rule="evenodd" d="M371.33 245.733C371.33 251.187 366.872 255.649 361.422 255.649C356.025 255.649 351.515 251.245 351.515 245.733C351.515 240.118 356.128 235.817 361.422 235.817C366.769 235.817 371.33 240.118 371.33 245.733ZM353.117 245.707C353.117 250.324 356.835 254.052 361.397 254.052C366.009 254.052 369.734 250.247 369.734 245.707C369.734 241.09 365.958 237.42 361.397 237.42C356.887 237.42 353.117 241.039 353.117 245.707ZM357.698 240.169H361.525C362.838 240.169 365.411 240.169 365.411 243.112C365.411 245.16 364.099 245.578 363.307 245.836C364.832 245.945 364.935 246.943 365.141 248.354C365.25 249.249 365.411 250.768 365.72 251.296H363.365C363.307 250.768 362.941 247.935 362.941 247.781C362.786 247.149 362.574 246.834 361.789 246.834H359.853V251.296H357.698V240.169ZM359.801 245.05H361.525C362.941 245.05 363.204 244.052 363.204 243.479C363.204 241.953 362.156 241.953 361.577 241.953H359.801V245.05Z" fill="black"/>
<path d="M122.158 116.609C122.158 114.24 120.909 112.063 118.864 110.885L64.3662 79.4944C63.4463 78.9535 62.4105 78.6702 61.3683 78.6316C61.2718 78.6316 60.8793 78.6316 60.8021 78.6316C59.7599 78.6702 58.7306 78.9535 57.7913 79.4944L3.29391 110.885C1.26738 112.063 0 114.24 0 116.609L0.122235 201.136C0.122235 202.314 0.733408 203.409 1.76275 203.982C2.7728 204.594 4.02731 204.594 5.03093 203.982L37.4231 185.424C39.469 184.207 40.717 182.057 40.717 179.706V140.215C40.717 137.859 41.9651 135.682 44.0045 134.51L57.7913 126.564C58.8207 125.966 59.9465 125.676 61.0916 125.676C62.2175 125.676 63.3691 125.966 64.3662 126.564L78.153 134.51C80.1924 135.682 81.4469 137.859 81.4469 140.215V179.706C81.4469 182.057 82.7079 184.22 84.7409 185.424L117.12 203.982C118.137 204.594 119.404 204.594 120.414 203.982C121.418 203.409 122.048 202.314 122.048 201.136L122.158 116.609Z" fill="#333333"/>
<path fill-rule="evenodd" clip-rule="evenodd" d="M416.821 18.5352C418.905 19.7007 420.198 21.9029 420.198 24.2918V181.322C420.198 183.679 418.944 185.849 416.904 187.028L362.381 218.547C360.342 219.725 357.833 219.725 355.793 218.547L301.277 187.028C299.244 185.849 297.989 183.679 297.989 181.322V118.329C297.989 115.972 299.244 113.802 301.283 112.624L355.8 81.1298C357.833 79.9579 360.342 79.9515 362.375 81.1298L376.026 88.9984C376.74 89.4105 377.622 89.4105 378.329 88.9984C379.044 88.5863 379.481 87.8265 379.481 87.0023V3.29382C379.481 2.12834 380.099 1.04657 381.109 0.454172C382.112 -0.138226 383.36 -0.151105 384.377 0.415538L416.821 18.5352ZM379.32 138.992C379.32 138.406 379.005 137.858 378.497 137.562L359.782 126.745C359.267 126.448 358.643 126.448 358.135 126.745L339.414 137.562C338.906 137.858 338.59 138.406 338.59 138.992V160.627C338.59 161.213 338.906 161.754 339.414 162.05L358.135 172.849C358.643 173.145 359.267 173.145 359.776 172.849L378.497 162.05C379.005 161.754 379.32 161.213 379.32 160.627V138.992Z" fill="#333333"/>
<path d="M565.915 138.425C567.941 137.247 569.189 135.077 569.189 132.726V117.459C569.189 115.115 567.941 112.939 565.915 111.761L511.746 80.2862C509.706 79.1014 507.191 79.095 505.151 80.2733L450.647 111.767C448.614 112.945 447.36 115.115 447.36 117.472V180.453C447.36 182.823 448.627 185.006 450.686 186.177L504.842 217.066C506.843 218.206 509.288 218.218 511.302 217.098L544.061 198.875C545.096 198.296 545.746 197.208 545.752 196.016C545.759 194.832 545.128 193.731 544.099 193.138L489.254 161.632C488.231 161.046 487.601 159.951 487.601 158.773V139.037C487.601 137.858 488.225 136.77 489.248 136.184L506.316 126.332C507.332 125.746 508.587 125.746 509.603 126.332L526.677 136.184C527.7 136.77 528.331 137.858 528.331 139.037V154.568C528.331 155.746 528.955 156.834 529.978 157.42C531.001 158.013 532.255 158.006 533.272 157.414L565.915 138.425Z" fill="#333333"/>
<path d="M507.641 135.476C508.033 135.251 508.516 135.251 508.908 135.476L519.369 141.516C519.761 141.741 520 142.16 520 142.61V154.703C520 155.154 519.761 155.572 519.369 155.798L508.908 161.838C508.516 162.063 508.033 162.063 507.641 161.838L497.193 155.798C496.801 155.572 496.556 155.154 496.556 154.703V142.61C496.556 142.16 496.801 141.741 497.193 141.516L507.641 135.476Z" fill="black"/>
<path d="M267.655 111.915L213.293 80.6019C212.759 80.2928 212.18 80.0739 211.595 79.9258L150.555 184.439C151.076 185.031 151.693 185.547 152.382 185.946L206.834 217.279C208.378 218.174 210.212 218.38 211.897 217.916L269.116 113.042C268.678 112.611 268.196 112.224 267.655 111.915Z" fill="url(#paint0_linear)"/>
<path d="M204.994 69.0952L204.248 69.5202H205.245L204.994 69.0952Z" fill="url(#paint1_linear)"/>
<path d="M267.688 185.946C269.27 185.025 270.448 183.505 270.891 181.773L211.299 79.8678C209.742 79.5587 208.089 79.7969 206.693 80.6018L152.69 111.729L211.029 218.096C211.859 217.98 212.676 217.71 213.422 217.278L267.688 185.946Z" fill="url(#paint2_linear)"/>
<path d="M272.744 184.935L272.384 184.323V185.141L272.744 184.935Z" fill="url(#paint3_linear)"/>
<path d="M267.688 185.946L213.422 217.278C212.676 217.71 211.859 217.98 211.029 218.096L212.109 220.067L272.384 185.141V184.323L270.891 181.773C270.448 183.505 269.27 185.025 267.688 185.946Z" fill="url(#paint4_linear)"/>
<path d="M267.688 185.946L213.422 217.278C212.676 217.71 211.859 217.98 211.029 218.096L212.109 220.067L272.384 185.141V184.323L270.891 181.773C270.448 183.505 269.27 185.025 267.688 185.946Z" fill="url(#paint5_linear)"/>
<path d="M213.351 80.6019C211.325 79.4364 208.828 79.4364 206.802 80.6019L152.594 111.915C150.567 113.087 149.319 115.251 149.319 117.595V180.267C149.319 182.61 150.567 184.767 152.588 185.946L206.802 217.279C208.828 218.45 211.325 218.45 213.351 217.279L267.553 185.946C269.579 184.767 270.827 182.61 270.827 180.267V117.588C270.827 115.251 269.579 113.087 267.553 111.915L213.351 80.6019Z" fill="url(#paint6_linear)"/>
<defs>
<linearGradient id="paint0_linear" x1="167.291" y1="109.52" x2="304.804" y2="8.00793" gradientUnits="userSpaceOnUse">
<stop offset="0.137" stop-color="#408B3C"/>
<stop offset="0.908" stop-color="#6AC24F"/>
</linearGradient>
<linearGradient id="paint1_linear" x1="147.399" y1="66.5176" x2="272.743" y2="66.5176" gradientUnits="userSpaceOnUse">
<stop offset="0.092" stop-color="#6AC24F"/>
<stop offset="0.863" stop-color="#408B3C"/>
</linearGradient>
<linearGradient id="paint2_linear" x1="147.399" y1="77.1659" x2="272.744" y2="77.1659" gradientUnits="userSpaceOnUse">
<stop offset="0.092" stop-color="#6AC24F"/>
<stop offset="0.863" stop-color="#408B3C"/>
</linearGradient>
<linearGradient id="paint3_linear" x1="147.387" y1="181.744" x2="272.744" y2="181.744" gradientUnits="userSpaceOnUse">
<stop offset="0.092" stop-color="#6AC24F"/>
<stop offset="0.863" stop-color="#408B3C"/>
</linearGradient>
<linearGradient id="paint4_linear" x1="147.399" y1="179.197" x2="272.744" y2="179.197" gradientUnits="userSpaceOnUse">
<stop offset="0.092" stop-color="#6AC24F"/>
<stop offset="0.863" stop-color="#408B3C"/>
</linearGradient>
<linearGradient id="paint5_linear" x1="311.544" y1="111.036" x2="234.129" y2="268.823" gradientUnits="userSpaceOnUse">
<stop stop-color="#408B3C"/>
<stop offset="1" stop-color="#45B449"/>
</linearGradient>
<linearGradient id="paint6_linear" x1="296.603" y1="135.671" x2="247.762" y2="235.218" gradientUnits="userSpaceOnUse">
<stop stop-color="#408B3C"/>
<stop offset="1" stop-color="#45B449"/>
</linearGradient>
</defs>
</svg>
