<svg width="398" height="398" viewBox="0 0 398 398" fill="none" xmlns="http://www.w3.org/2000/svg">
<path d="M198.668 232.034C217.059 232.034 231.968 217.126 231.968 198.735C231.968 180.344 217.059 165.436 198.668 165.436C180.278 165.436 165.369 180.344 165.369 198.735C165.369 217.126 180.278 232.034 198.668 232.034Z" fill="#00D8FF"/>
<path d="M198.668 275.018C151.903 275.018 111.042 269.512 80.4623 259.032C60.6287 252.266 43.78 243.244 31.7737 232.963C19.0377 222.084 12.2717 210.21 12.2717 198.735C12.2717 176.712 36.417 155.154 76.9467 141.091C110.113 129.549 153.363 123.115 198.602 123.115C243.045 123.115 285.698 129.35 318.665 140.759C337.968 147.393 354.22 156.016 365.762 165.568C378.299 176.049 384.932 187.524 384.932 198.735C384.932 221.62 357.935 244.77 314.42 259.164C283.641 269.38 242.515 275.018 198.668 275.018ZM198.668 139.035C155.751 139.035 113.297 145.27 82.2533 156.082C44.974 169.084 28.258 186.861 28.258 198.735C28.258 211.073 46.2343 230.508 85.6363 243.974C114.558 253.858 153.694 259.098 198.668 259.098C240.856 259.098 280.192 253.791 309.445 244.04C350.373 230.442 369.079 211.006 369.079 198.735C369.079 192.433 364.303 185.004 355.613 177.773C345.597 169.415 331.003 161.787 313.558 155.751C282.182 145.005 241.387 139.035 198.668 139.035Z" fill="#00D8FF"/>
<path d="M123.115 364.701C116.349 364.701 110.379 363.241 105.337 360.323C86.2997 349.311 79.6663 317.604 87.6927 275.482C94.2597 240.923 110.312 200.327 132.932 161.124C155.154 122.65 181.82 88.8204 208.154 65.9354C223.543 52.536 239.132 42.7187 253.194 37.5447C268.517 31.9064 281.784 31.9064 291.469 37.4784C311.302 48.8877 317.869 83.9117 308.583 128.753C302.016 160.593 286.361 199 264.471 237.009C241.122 277.472 215.915 310.108 191.571 331.401C175.783 345.199 159.532 355.281 144.673 360.522C136.912 363.308 129.615 364.701 123.115 364.701ZM139.764 165.104L146.663 169.084C125.237 206.23 109.384 246.097 103.281 278.467C95.918 317.272 103.016 340.622 113.231 346.525C115.752 347.985 119.068 348.781 123.115 348.781C136.315 348.781 157.077 340.423 181.09 319.461C204.108 299.362 228.187 268.053 250.674 229.115C271.768 192.566 286.759 155.817 292.994 125.635C301.684 83.381 294.188 57.511 283.509 51.342C278.069 48.2244 269.247 48.6224 258.634 52.536C246.362 57.0467 232.498 65.869 218.568 78.008C193.561 99.7654 168.022 132.136 146.663 169.15L139.764 165.104Z" fill="#00D8FF"/>
<path d="M274.222 364.9C256.179 364.9 233.294 354.021 209.414 333.458C182.748 310.506 155.618 276.345 132.932 237.142C110.644 198.668 94.724 158.669 88.0243 124.375C84.1107 104.342 83.381 85.968 85.9017 71.1757C88.6877 55.0567 95.2547 43.581 105.006 37.9427C124.773 26.467 158.404 38.2743 192.632 68.7213C216.91 90.2797 242.382 123.048 264.338 160.991C287.754 201.454 303.475 239.596 309.71 271.303C313.757 291.867 314.42 310.971 311.568 326.493C308.516 343.01 301.618 354.751 291.668 360.522C286.693 363.44 280.789 364.9 274.222 364.9ZM146.729 229.182C168.221 266.328 194.887 299.959 219.829 321.385C249.745 347.122 273.492 352.694 283.774 346.724C294.454 340.555 302.281 315.282 294.188 274.421C288.218 244.438 273.161 207.955 250.607 169.017C229.447 132.468 205.103 101.092 182.085 80.6614C149.847 52.0053 123.712 45.571 113.032 51.74C107.593 54.8577 103.546 62.7514 101.623 73.8954C99.4337 86.764 100.097 103.215 103.679 121.324C110.047 153.893 125.304 192.168 146.729 229.182Z" fill="#00D8FF"/>
</svg>
