<svg width="80" height="80" viewBox="0 0 80 80" fill="none" xmlns="http://www.w3.org/2000/svg">
<rect width="80" height="80" fill="#00ACEE"/>
<path d="M71 21.0377C68.7189 22.0627 66.2673 22.753 63.6943 23.0642C66.3216 21.4717 68.3392 18.9484 69.2872 15.9413C66.8305 17.4161 64.1077 18.4882 61.2092 19.0661C58.8919 16.5637 55.5827 15 51.9247 15C43.7122 15 37.6776 22.7556 39.5324 30.8068C28.964 30.2707 19.5917 25.1456 13.3168 17.356C9.98425 23.1426 11.5885 30.7126 17.2512 34.546C15.169 34.478 13.2057 33.9001 11.4929 32.9352C11.3534 38.8997 15.5772 44.4798 21.6945 45.7218C19.9042 46.2134 17.9435 46.3285 15.9492 45.9415C17.5663 51.0561 22.2628 54.7771 27.8325 54.8817C22.485 59.1256 15.7477 61.0213 9 60.216C14.6291 63.8689 21.3173 66 28.499 66C52.1158 66 65.4587 45.8108 64.6527 27.7029C67.1379 25.8856 69.295 23.6185 71 21.0377Z" fill="white"/>
</svg>
